<svg width="84" height="32" viewBox="0 0 84 32" fill="none" xmlns="http://www.w3.org/2000/svg">
<path d="M7.99466 26.6267C7.28884 26.6267 6.61191 26.3463 6.11282 25.8472C5.61372 25.3481 5.33333 24.6712 5.33333 23.9653C5.33333 23.2595 5.61372 22.5826 6.11282 22.0835C6.61191 21.5844 7.28884 21.304 7.99466 21.304C8.70049 21.304 9.37742 21.5844 9.87651 22.0835C10.3756 22.5826 10.656 23.2595 10.656 23.9653C10.656 24.6712 10.3756 25.3481 9.87651 25.8472C9.37742 26.3463 8.70049 26.6267 7.99466 26.6267ZM6.82666 15.9693C6.48133 16.0035 6.13632 15.9014 5.8652 15.6848C5.59408 15.4681 5.4183 15.1542 5.37534 14.8098C5.33239 14.4655 5.42565 14.118 5.63525 13.8414C5.84484 13.5648 6.15419 13.3811 6.49733 13.3293C8.01739 13.1393 9.56047 13.2748 11.0242 13.7266C12.4879 14.1785 13.8388 14.9365 14.9873 15.9502C16.1357 16.964 17.0554 18.2104 17.6854 19.6068C18.3154 21.0031 18.6413 22.5175 18.6413 24.0493V25.296C18.6413 25.6489 18.5011 25.9874 18.2516 26.2369C18.002 26.4865 17.6636 26.6267 17.3107 26.6267C16.9578 26.6267 16.6193 26.4865 16.3697 26.2369C16.1202 25.9874 15.98 25.6489 15.98 25.296V24.0507C15.9798 22.8961 15.7342 21.7547 15.2593 20.7023C14.7844 19.6499 14.0912 18.7105 13.2256 17.9464C12.36 17.1823 11.3418 16.611 10.2386 16.2704C9.13539 15.9297 7.97236 15.8276 6.82666 15.9707V15.9693ZM5.33333 6.75334C5.32156 6.57883 5.34431 6.40371 5.40027 6.238C5.45624 6.07229 5.54433 5.91924 5.65949 5.7876C5.77466 5.65596 5.91465 5.54832 6.07146 5.47083C6.22826 5.39335 6.39881 5.34753 6.57333 5.33601C16.956 4.64401 25.9307 12.4987 26.6227 22.88C26.6787 23.7147 26.6787 24.552 26.6227 25.3867C26.5991 25.7389 26.4367 26.0673 26.171 26.2997C25.9053 26.5322 25.5582 26.6495 25.206 26.626C24.8538 26.6025 24.5254 26.44 24.2929 26.1744C24.0605 25.9087 23.9432 25.5616 23.9667 25.2093C24.0147 24.492 24.0147 23.7733 23.9667 23.0573C23.3733 14.1427 15.6667 7.39734 6.75333 7.99201C6.57861 8.00415 6.40321 7.98167 6.23719 7.92587C6.07117 7.87007 5.9178 7.78205 5.78587 7.66684C5.65395 7.55164 5.54606 7.41153 5.4684 7.25454C5.39075 7.09755 5.34484 6.92678 5.33333 6.75201V6.75334Z" fill="#1A3B60"/>
<path d="M35.2344 11.3906H41.3203C41.3203 11.4271 41.3229 11.4661 41.3281 11.5078C41.3333 11.5443 41.3359 11.5859 41.3359 11.6328C41.3411 11.6745 41.3438 11.7214 41.3438 11.7734C41.3438 11.862 41.3255 11.9974 41.2891 12.1797C41.2578 12.3568 41.1849 12.5625 41.0703 12.7969C40.638 12.7812 40.1901 12.7656 39.7266 12.75C39.3307 12.7396 38.8932 12.7292 38.4141 12.7188C37.9349 12.7031 37.4661 12.6953 37.0078 12.6953V15.8984C37.1589 15.8984 37.3281 15.8984 37.5156 15.8984C37.7083 15.8932 37.9062 15.888 38.1094 15.8828C38.3177 15.8776 38.526 15.8724 38.7344 15.8672C38.9427 15.862 39.1458 15.8568 39.3438 15.8516C39.8021 15.8359 40.2734 15.8229 40.7578 15.8125C40.7578 15.8542 40.7604 15.8984 40.7656 15.9453C40.7708 15.987 40.7734 16.0365 40.7734 16.0938C40.7786 16.1458 40.7812 16.2005 40.7812 16.2578C40.7812 16.2839 40.776 16.3359 40.7656 16.4141C40.7604 16.487 40.7474 16.5703 40.7266 16.6641C40.7109 16.7578 40.6901 16.8516 40.6641 16.9453C40.6432 17.0391 40.6172 17.1172 40.5859 17.1797C40.1016 17.1797 39.6354 17.1771 39.1875 17.1719C38.9948 17.1719 38.7969 17.1719 38.5938 17.1719C38.3906 17.1719 38.1927 17.1719 38 17.1719C37.8125 17.1667 37.6328 17.1641 37.4609 17.1641C37.2891 17.1641 37.138 17.1641 37.0078 17.1641V20.6641C37.4661 20.6641 37.9479 20.6562 38.4531 20.6406C38.9635 20.625 39.4375 20.6094 39.875 20.5938C40.3854 20.5729 40.888 20.5495 41.3828 20.5234C41.3828 20.5703 41.3854 20.6198 41.3906 20.6719C41.3958 20.7135 41.3984 20.7656 41.3984 20.8281C41.4036 20.8854 41.4062 20.9427 41.4062 21C41.4062 21.1094 41.3984 21.2526 41.3828 21.4297C41.3672 21.6068 41.3333 21.7969 41.2812 22H35.2344V11.3906ZM44.9609 17.9062C44.7474 17.6042 44.5339 17.2891 44.3203 16.9609C44.1068 16.6276 43.8932 16.2943 43.6797 15.9609C43.4661 15.6224 43.2526 15.2891 43.0391 14.9609C42.8255 14.6328 42.612 14.3177 42.3984 14.0156H44.1875L45.7344 16.5156L45.9609 17L46.1797 16.5156C46.4505 16.1094 46.7109 15.6927 46.9609 15.2656C47.2109 14.8385 47.4688 14.4219 47.7344 14.0156H49.5078L46.8438 18.0391L49.4609 22H47.6719L46.0391 19.3906L45.8281 18.9297L45.6172 19.3906L44.0391 22H42.2812L44.9609 17.9062ZM52.4922 25.1641H50.8203V15.0547L50.2031 14.4219V13.9297H51.6328L52.25 14.4688L52.5391 14.4844C52.5703 14.4531 52.638 14.401 52.7422 14.3281C52.8516 14.25 52.9948 14.1719 53.1719 14.0938C53.349 14.0104 53.5599 13.9401 53.8047 13.8828C54.0495 13.8203 54.3229 13.7891 54.625 13.7891C55.0104 13.7891 55.3854 13.8516 55.75 13.9766C56.1198 14.1016 56.4453 14.3177 56.7266 14.625C57.013 14.9323 57.2422 15.349 57.4141 15.875C57.5859 16.3958 57.6719 17.0547 57.6719 17.8516C57.6719 18.5391 57.5651 19.151 57.3516 19.6875C57.1432 20.224 56.862 20.6745 56.5078 21.0391C56.1536 21.4036 55.7396 21.6823 55.2656 21.875C54.7969 22.0625 54.3021 22.1562 53.7812 22.1562C53.6458 22.1562 53.5 22.151 53.3438 22.1406C53.1927 22.1302 53.0547 22.1172 52.9297 22.1016C52.7786 22.0859 52.6328 22.0677 52.4922 22.0469V25.1641ZM52.4922 20.8438C52.5807 20.8698 52.7005 20.8932 52.8516 20.9141C53.0026 20.9349 53.1693 20.9453 53.3516 20.9453C53.7422 20.9453 54.0964 20.8724 54.4141 20.7266C54.7318 20.5755 55 20.3672 55.2188 20.1016C55.4427 19.8307 55.6146 19.5052 55.7344 19.125C55.8594 18.7448 55.9219 18.3203 55.9219 17.8516C55.9219 17.2734 55.8698 16.8047 55.7656 16.4453C55.6667 16.0807 55.5208 15.7969 55.3281 15.5938C55.1406 15.3854 54.9115 15.2448 54.6406 15.1719C54.3698 15.099 54.0677 15.0625 53.7344 15.0625C53.5885 15.0625 53.4427 15.0859 53.2969 15.1328C53.151 15.1745 53.0182 15.224 52.8984 15.2812C52.7578 15.3438 52.6224 15.4141 52.4922 15.4922V20.8438ZM59.2656 10.7578H60.8828V20.6875L61.3438 21.0156V22H60.8984L60.8828 21.9844V22C60.3672 22 59.9688 21.8958 59.6875 21.6875C59.4062 21.4792 59.2656 21.1354 59.2656 20.6562V10.7578ZM62.6719 18.0078C62.6719 17.3203 62.763 16.7135 62.9453 16.1875C63.1328 15.6615 63.3932 15.2214 63.7266 14.8672C64.0651 14.513 64.4661 14.2448 64.9297 14.0625C65.3984 13.8802 65.9141 13.7891 66.4766 13.7891C67.0547 13.7891 67.5755 13.875 68.0391 14.0469C68.5026 14.2135 68.8958 14.4688 69.2188 14.8125C69.5417 15.1562 69.7891 15.5859 69.9609 16.1016C70.1328 16.612 70.2188 17.2109 70.2188 17.8984C70.2188 18.5859 70.1302 19.1953 69.9531 19.7266C69.7812 20.2578 69.5312 20.7031 69.2031 21.0625C68.8802 21.4219 68.487 21.6953 68.0234 21.8828C67.5651 22.0651 67.0495 22.1562 66.4766 22.1562C65.8828 22.1562 65.349 22.0703 64.875 21.8984C64.4062 21.7214 64.0078 21.4609 63.6797 21.1172C63.3568 20.7682 63.1068 20.3359 62.9297 19.8203C62.7578 19.2995 62.6719 18.6953 62.6719 18.0078ZM66.4766 20.8672C66.8203 20.8672 67.1172 20.7943 67.3672 20.6484C67.6224 20.4974 67.8307 20.2917 67.9922 20.0312C68.1536 19.7656 68.2734 19.4531 68.3516 19.0938C68.4297 18.7292 68.4688 18.3307 68.4688 17.8984C68.4688 16.9661 68.3099 16.2552 67.9922 15.7656C67.6745 15.276 67.1693 15.0312 66.4766 15.0312C66.1276 15.0312 65.8229 15.1068 65.5625 15.2578C65.3073 15.4036 65.0938 15.6094 64.9219 15.875C64.7552 16.1406 64.6302 16.4557 64.5469 16.8203C64.4635 17.1849 64.4219 17.5807 64.4219 18.0078C64.4219 18.9505 64.5885 19.6641 64.9219 20.1484C65.2604 20.6276 65.7786 20.8672 66.4766 20.8672ZM72.875 13.9297L73.6797 14.7734C73.737 14.6432 73.8099 14.5208 73.8984 14.4062C73.9922 14.2865 74.099 14.1823 74.2188 14.0938C74.3438 14.0052 74.4818 13.9349 74.6328 13.8828C74.7891 13.8307 74.9583 13.8047 75.1406 13.8047C75.2917 13.8047 75.4375 13.8177 75.5781 13.8438C75.7188 13.8646 75.8724 13.9036 76.0391 13.9609C76.0443 13.9714 76.0495 14.013 76.0547 14.0859C76.0651 14.1589 76.0703 14.25 76.0703 14.3594C76.0703 14.4427 76.0651 14.5417 76.0547 14.6562C76.0443 14.7656 76.026 14.8802 76 15C75.9792 15.1146 75.9453 15.2292 75.8984 15.3438C75.8568 15.4583 75.8021 15.5573 75.7344 15.6406L75.5859 15.6797C75.4818 15.6276 75.3646 15.5833 75.2344 15.5469C75.1094 15.5104 74.9792 15.4922 74.8438 15.4922C74.6354 15.4922 74.4609 15.5078 74.3203 15.5391C74.1797 15.5651 74.0651 15.5938 73.9766 15.625C73.8724 15.6615 73.7891 15.7031 73.7266 15.75V22H72.0547V15.4453L71.4375 14.8125V13.9297H72.875ZM76.8984 18.0859C76.8984 17.3359 76.9896 16.6901 77.1719 16.1484C77.3542 15.6068 77.6094 15.1615 77.9375 14.8125C78.2656 14.4635 78.6562 14.2083 79.1094 14.0469C79.5677 13.8802 80.0703 13.7969 80.6172 13.7969C81.1224 13.7969 81.5729 13.8828 81.9688 14.0547C82.3698 14.2214 82.7083 14.4583 82.9844 14.7656C83.2604 15.0729 83.4714 15.4401 83.6172 15.8672C83.763 16.2943 83.8359 16.7656 83.8359 17.2812C83.8359 17.4583 83.8281 17.6224 83.8125 17.7734C83.7969 17.9245 83.7786 18.0547 83.7578 18.1641C83.737 18.2943 83.7135 18.4115 83.6875 18.5156L78.5625 18.4922C78.5677 18.9557 78.6172 19.3411 78.7109 19.6484C78.8047 19.9505 78.9427 20.1901 79.125 20.3672C79.3125 20.5443 79.5469 20.6693 79.8281 20.7422C80.1094 20.8099 80.4427 20.8438 80.8281 20.8438C81.1562 20.8438 81.4505 20.8229 81.7109 20.7812C81.9714 20.7396 82.1927 20.6901 82.375 20.6328C82.5833 20.5703 82.7708 20.4974 82.9375 20.4141C83.0156 20.5964 83.0755 20.7656 83.1172 20.9219C83.1641 21.0781 83.1979 21.2135 83.2188 21.3281C83.2396 21.4635 83.2552 21.5833 83.2656 21.6875C83.0938 21.776 82.8854 21.8542 82.6406 21.9219C82.4323 21.9792 82.1771 22.0312 81.875 22.0781C81.5729 22.1302 81.224 22.1562 80.8281 22.1562C80.2031 22.1562 79.6458 22.0859 79.1562 21.9453C78.6719 21.8047 78.2604 21.5755 77.9219 21.2578C77.5885 20.9349 77.3333 20.5156 77.1562 20C76.9844 19.4792 76.8984 18.8411 76.8984 18.0859ZM82.1641 17.3516V17.0859C82.1641 16.7578 82.1224 16.4688 82.0391 16.2188C81.9609 15.9635 81.8516 15.75 81.7109 15.5781C81.5703 15.4062 81.4036 15.276 81.2109 15.1875C81.0182 15.099 80.8099 15.0547 80.5859 15.0547C80.2578 15.0547 79.9688 15.099 79.7188 15.1875C79.4688 15.2708 79.2578 15.4062 79.0859 15.5938C78.9193 15.776 78.7943 16.013 78.7109 16.3047C78.6276 16.5964 78.5859 16.9453 78.5859 17.3516H82.1641Z" fill="#1A3B60"/>
</svg>
