<svg width="22" height="22" viewBox="0 0 22 22" fill="none" xmlns="http://www.w3.org/2000/svg">
<path d="M2.99466 21.6267C2.28884 21.6267 1.61191 21.3463 1.11282 20.8472C0.613721 20.3481 0.333332 19.6712 0.333332 18.9653C0.333332 18.2595 0.613721 17.5826 1.11282 17.0835C1.61191 16.5844 2.28884 16.304 2.99466 16.304C3.70049 16.304 4.37742 16.5844 4.87651 17.0835C5.37561 17.5826 5.656 18.2595 5.656 18.9653C5.656 19.6712 5.37561 20.3481 4.87651 20.8472C4.37742 21.3463 3.70049 21.6267 2.99466 21.6267ZM1.82666 10.9693C1.48133 11.0035 1.13632 10.9014 0.865199 10.6848C0.594079 10.4681 0.418301 10.1542 0.375344 9.80985C0.332387 9.4655 0.42565 9.11799 0.635247 8.84142C0.844845 8.56485 1.15419 8.38109 1.49733 8.32934C3.01739 8.13935 4.56047 8.27477 6.02419 8.72663C7.48792 9.17849 8.83881 9.93645 9.98726 10.9502C11.1357 11.964 12.0554 13.2104 12.6854 14.6068C13.3154 16.0031 13.6413 17.5175 13.6413 19.0493V20.296C13.6413 20.6489 13.5011 20.9874 13.2516 21.2369C13.002 21.4865 12.6636 21.6267 12.3107 21.6267C11.9578 21.6267 11.6193 21.4865 11.3697 21.2369C11.1202 20.9874 10.98 20.6489 10.98 20.296V19.0507C10.9798 17.8961 10.7342 16.7547 10.2593 15.7023C9.78439 14.6499 9.09116 13.7105 8.22557 12.9464C7.35998 12.1823 6.3418 11.611 5.23859 11.2704C4.13539 10.9297 2.97236 10.8276 1.82666 10.9707V10.9693ZM0.333332 1.75334C0.32156 1.57883 0.344308 1.40371 0.400274 1.238C0.45624 1.07229 0.544326 0.919241 0.659494 0.787603C0.774662 0.655965 0.914652 0.548323 1.07146 0.470834C1.22826 0.393345 1.39881 0.34753 1.57333 0.336009C11.956 -0.355991 20.9307 7.49868 21.6227 17.88C21.6787 18.7147 21.6787 19.552 21.6227 20.3867C21.5991 20.7389 21.4367 21.0673 21.171 21.2997C20.9053 21.5322 20.5582 21.6495 20.206 21.626C19.8538 21.6025 19.5254 21.44 19.2929 21.1744C19.0605 20.9087 18.9432 20.5616 18.9667 20.2093C19.0147 19.492 19.0147 18.7733 18.9667 18.0573C18.3733 9.14268 10.6667 2.39734 1.75333 2.99201C1.57861 3.00415 1.40321 2.98167 1.23719 2.92587C1.07117 2.87007 0.917796 2.78205 0.785871 2.66684C0.653945 2.55164 0.54606 2.41153 0.468403 2.25454C0.390746 2.09755 0.344845 1.92678 0.333332 1.75201V1.75334Z" fill="#83A0C1"/>
</svg>
