<svg width="22" height="22" viewBox="0 0 22 22" fill="none" xmlns="http://www.w3.org/2000/svg">
<path d="M2.66435 21.3331C1.95852 21.3331 1.2816 21.0527 0.782504 20.5536C0.283407 20.0545 0.00301718 19.3776 0.00301718 18.6718C0.00301718 17.9659 0.283407 17.289 0.782504 16.7899C1.2816 16.2908 1.95852 16.0104 2.66435 16.0104C3.37018 16.0104 4.0471 16.2908 4.5462 16.7899C5.04529 17.289 5.32568 17.9659 5.32568 18.6718C5.32568 19.3776 5.04529 20.0545 4.5462 20.5536C4.0471 21.0527 3.37018 21.3331 2.66435 21.3331ZM1.49635 10.6758C1.15101 10.7099 0.806004 10.6078 0.534884 10.3912C0.263764 10.1746 0.087986 9.86062 0.0450291 9.51627C0.00207214 9.17192 0.0953353 8.82441 0.304933 8.54784C0.51453 8.27127 0.823878 8.08751 1.16702 8.03576C2.68707 7.84577 4.23015 7.98119 5.69388 8.43305C7.1576 8.88491 8.5085 9.64288 9.65694 10.6567C10.8054 11.6704 11.7251 12.9168 12.3551 14.3132C12.9851 15.7095 13.3109 17.2239 13.311 18.7558V20.0024C13.311 20.3553 13.1708 20.6938 12.9213 20.9434C12.6717 21.1929 12.3333 21.3331 11.9804 21.3331C11.6274 21.3331 11.289 21.1929 11.0394 20.9434C10.7899 20.6938 10.6497 20.3553 10.6497 20.0024V18.7571C10.6495 17.6025 10.4038 16.4611 9.92896 15.4087C9.45408 14.3563 8.76085 13.4169 7.89526 12.6528C7.02966 11.8887 6.01149 11.3174 4.90828 10.9768C3.80507 10.6362 2.64204 10.534 1.49635 10.6771V10.6758ZM0.00301718 1.45976C-0.00875437 1.28525 0.0139933 1.11014 0.0699594 0.944424C0.125925 0.778714 0.214012 0.625662 0.32918 0.494024C0.444347 0.362385 0.584338 0.254744 0.741143 0.177255C0.897948 0.0997663 1.06849 0.0539511 1.24302 0.0424302C11.6257 -0.64957 20.6004 7.2051 21.2924 17.5864C21.3484 18.4211 21.3484 19.2584 21.2924 20.0931C21.2688 20.4453 21.1064 20.7737 20.8407 21.0062C20.575 21.2386 20.2279 21.3559 19.8757 21.3324C19.5235 21.3089 19.195 21.1464 18.9626 20.8808C18.7302 20.6151 18.6128 20.268 18.6364 19.9158C18.6844 19.1984 18.6844 18.4798 18.6364 17.7638C18.043 8.8491 10.3364 2.10376 1.42302 2.69843C1.24829 2.71057 1.07289 2.68809 0.906872 2.63229C0.740852 2.57649 0.587482 2.48847 0.455556 2.37327C0.32363 2.25806 0.215745 2.11795 0.138088 1.96096C0.060431 1.80397 0.0145299 1.6332 0.00301718 1.45843V1.45976Z" fill="#1A3B60"/>
</svg>
