<svg width="76" height="32" viewBox="0 0 76 32" fill="none" xmlns="http://www.w3.org/2000/svg">
<path d="M14.0667 3.37597C14.6077 2.92 15.2925 2.66992 16 2.66992C16.7075 2.66992 17.3923 2.92 17.9333 3.37597L26.9333 10.9653C27.6093 11.536 28 12.3746 28 13.2586V26.3293C28 26.9481 27.7542 27.5416 27.3166 27.9792C26.879 28.4168 26.2855 28.6626 25.6667 28.6626H21C20.3812 28.6626 19.7877 28.4168 19.3501 27.9792C18.9125 27.5416 18.6667 26.9481 18.6667 26.3293V18.996C18.6667 18.9076 18.6315 18.8228 18.569 18.7603C18.5065 18.6978 18.4217 18.6626 18.3333 18.6626H13.6667C13.5783 18.6626 13.4935 18.6978 13.431 18.7603C13.3685 18.8228 13.3333 18.9076 13.3333 18.996V26.3293C13.3333 26.9481 13.0875 27.5416 12.6499 27.9792C12.2123 28.4168 11.6188 28.6626 11 28.6626H6.33333C6.02692 28.6626 5.7235 28.6023 5.44041 28.485C5.15731 28.3678 4.90009 28.1959 4.68342 27.9792C4.46675 27.7625 4.29488 27.5053 4.17761 27.2222C4.06035 26.9391 4 26.6357 4 26.3293V13.2586C4 12.3746 4.39067 11.536 5.06667 10.9653L14.0667 3.37597ZM16.644 4.9053C16.4637 4.75355 16.2356 4.67033 16 4.67033C15.7644 4.67033 15.5363 4.75355 15.356 4.9053L6.356 12.4933C6.24463 12.5871 6.15506 12.704 6.09357 12.836C6.03208 12.9679 6.00015 13.1117 6 13.2573V26.328C6 26.512 6.14933 26.6613 6.33333 26.6613H11C11.0884 26.6613 11.1732 26.6262 11.2357 26.5637C11.2982 26.5012 11.3333 26.4164 11.3333 26.328V18.9946C11.3333 17.7053 12.3787 16.6613 13.6667 16.6613H18.3333C19.6213 16.6613 20.6667 17.7053 20.6667 18.9946V26.328C20.6667 26.512 20.816 26.6613 21 26.6613H25.6667C25.7551 26.6613 25.8399 26.6262 25.9024 26.5637C25.9649 26.5012 26 26.4164 26 26.328V13.2586C25.9999 13.1131 25.9679 12.9693 25.9064 12.8373C25.8449 12.7053 25.7554 12.5884 25.644 12.4946L16.644 4.9053Z" fill="#1A3B60"/>
<path d="M37.2344 11.3906H39.0078V15.8984H43.1484V11.3906H44.9141V22H43.1484V17.2578H39.0078V22H37.2344V11.3906ZM46.75 18.0078C46.75 17.3203 46.8411 16.7135 47.0234 16.1875C47.2109 15.6615 47.4714 15.2214 47.8047 14.8672C48.1432 14.513 48.5443 14.2448 49.0078 14.0625C49.4766 13.8802 49.9922 13.7891 50.5547 13.7891C51.1328 13.7891 51.6536 13.875 52.1172 14.0469C52.5807 14.2135 52.974 14.4688 53.2969 14.8125C53.6198 15.1562 53.8672 15.5859 54.0391 16.1016C54.2109 16.612 54.2969 17.2109 54.2969 17.8984C54.2969 18.5859 54.2083 19.1953 54.0312 19.7266C53.8594 20.2578 53.6094 20.7031 53.2812 21.0625C52.9583 21.4219 52.5651 21.6953 52.1016 21.8828C51.6432 22.0651 51.1276 22.1562 50.5547 22.1562C49.9609 22.1562 49.4271 22.0703 48.9531 21.8984C48.4844 21.7214 48.0859 21.4609 47.7578 21.1172C47.4349 20.7682 47.1849 20.3359 47.0078 19.8203C46.8359 19.2995 46.75 18.6953 46.75 18.0078ZM50.5547 20.8672C50.8984 20.8672 51.1953 20.7943 51.4453 20.6484C51.7005 20.4974 51.9089 20.2917 52.0703 20.0312C52.2318 19.7656 52.3516 19.4531 52.4297 19.0938C52.5078 18.7292 52.5469 18.3307 52.5469 17.8984C52.5469 16.9661 52.388 16.2552 52.0703 15.7656C51.7526 15.276 51.2474 15.0312 50.5547 15.0312C50.2057 15.0312 49.901 15.1068 49.6406 15.2578C49.3854 15.4036 49.1719 15.6094 49 15.875C48.8333 16.1406 48.7083 16.4557 48.625 16.8203C48.5417 17.1849 48.5 17.5807 48.5 18.0078C48.5 18.9505 48.6667 19.6641 49 20.1484C49.3385 20.6276 49.8568 20.8672 50.5547 20.8672ZM55.4609 14.8125V13.9297H56.8984L57.5703 14.6094L57.7812 14.4844C57.8073 14.4583 57.8828 14.4089 58.0078 14.3359C58.138 14.2578 58.2995 14.1797 58.4922 14.1016C58.6849 14.0182 58.901 13.9453 59.1406 13.8828C59.3854 13.8203 59.6328 13.7891 59.8828 13.7891C60.3464 13.7891 60.7266 13.8568 61.0234 13.9922C61.3255 14.1276 61.5885 14.3229 61.8125 14.5781C61.8958 14.5104 62.0182 14.4323 62.1797 14.3438C62.3411 14.25 62.526 14.1615 62.7344 14.0781C62.9479 13.9948 63.1771 13.9271 63.4219 13.875C63.6667 13.8177 63.9141 13.7891 64.1641 13.7891C64.6016 13.7891 65 13.8542 65.3594 13.9844C65.724 14.1146 66.0339 14.3021 66.2891 14.5469C66.5495 14.7865 66.75 15.0755 66.8906 15.4141C67.0365 15.7526 67.1094 16.1328 67.1094 16.5547V22H65.4297V16.7188C65.4297 16.1562 65.2786 15.7396 64.9766 15.4688C64.6745 15.1979 64.263 15.0625 63.7422 15.0625C63.4349 15.0625 63.1458 15.0885 62.875 15.1406C62.6094 15.1875 62.4115 15.2396 62.2812 15.2969C62.3542 15.4635 62.4115 15.6406 62.4531 15.8281C62.4948 16.0156 62.5156 16.2057 62.5156 16.3984V22H60.8359V16.5625C60.8359 16.0573 60.7318 15.6823 60.5234 15.4375C60.3151 15.1875 59.9583 15.0625 59.4531 15.0625C59.2135 15.0625 58.9896 15.0859 58.7812 15.1328C58.5729 15.1745 58.3932 15.224 58.2422 15.2812C58.0651 15.3438 57.901 15.4141 57.75 15.4922V22H56.0781V15.4453L55.4609 14.8125ZM68.8359 18.0859C68.8359 17.3359 68.9271 16.6901 69.1094 16.1484C69.2917 15.6068 69.5469 15.1615 69.875 14.8125C70.2031 14.4635 70.5938 14.2083 71.0469 14.0469C71.5052 13.8802 72.0078 13.7969 72.5547 13.7969C73.0599 13.7969 73.5104 13.8828 73.9062 14.0547C74.3073 14.2214 74.6458 14.4583 74.9219 14.7656C75.1979 15.0729 75.4089 15.4401 75.5547 15.8672C75.7005 16.2943 75.7734 16.7656 75.7734 17.2812C75.7734 17.4583 75.7656 17.6224 75.75 17.7734C75.7344 17.9245 75.7161 18.0547 75.6953 18.1641C75.6745 18.2943 75.651 18.4115 75.625 18.5156L70.5 18.4922C70.5052 18.9557 70.5547 19.3411 70.6484 19.6484C70.7422 19.9505 70.8802 20.1901 71.0625 20.3672C71.25 20.5443 71.4844 20.6693 71.7656 20.7422C72.0469 20.8099 72.3802 20.8438 72.7656 20.8438C73.0938 20.8438 73.388 20.8229 73.6484 20.7812C73.9089 20.7396 74.1302 20.6901 74.3125 20.6328C74.5208 20.5703 74.7083 20.4974 74.875 20.4141C74.9531 20.5964 75.013 20.7656 75.0547 20.9219C75.1016 21.0781 75.1354 21.2135 75.1562 21.3281C75.1771 21.4635 75.1927 21.5833 75.2031 21.6875C75.0312 21.776 74.8229 21.8542 74.5781 21.9219C74.3698 21.9792 74.1146 22.0312 73.8125 22.0781C73.5104 22.1302 73.1615 22.1562 72.7656 22.1562C72.1406 22.1562 71.5833 22.0859 71.0938 21.9453C70.6094 21.8047 70.1979 21.5755 69.8594 21.2578C69.526 20.9349 69.2708 20.5156 69.0938 20C68.9219 19.4792 68.8359 18.8411 68.8359 18.0859ZM74.1016 17.3516V17.0859C74.1016 16.7578 74.0599 16.4688 73.9766 16.2188C73.8984 15.9635 73.7891 15.75 73.6484 15.5781C73.5078 15.4062 73.3411 15.276 73.1484 15.1875C72.9557 15.099 72.7474 15.0547 72.5234 15.0547C72.1953 15.0547 71.9062 15.099 71.6562 15.1875C71.4062 15.2708 71.1953 15.4062 71.0234 15.5938C70.8568 15.776 70.7318 16.013 70.6484 16.3047C70.5651 16.5964 70.5234 16.9453 70.5234 17.3516H74.1016Z" fill="#1A3B60"/>
</svg>
