<svg width="24" height="27" viewBox="0 0 24 27" fill="none" xmlns="http://www.w3.org/2000/svg">
<path d="M10.0667 1.376C10.6077 0.920029 11.2925 0.669952 12 0.669952C12.7075 0.669952 13.3923 0.920029 13.9333 1.376L22.9333 8.96533C23.6093 9.536 24 10.3747 24 11.2587V24.3293C24 24.9482 23.7542 25.5417 23.3166 25.9792C22.879 26.4168 22.2855 26.6627 21.6667 26.6627H17C16.3812 26.6627 15.7877 26.4168 15.3501 25.9792C14.9125 25.5417 14.6667 24.9482 14.6667 24.3293V16.996C14.6667 16.9076 14.6315 16.8228 14.569 16.7603C14.5065 16.6978 14.4217 16.6627 14.3333 16.6627H9.66667C9.57826 16.6627 9.49348 16.6978 9.43096 16.7603C9.36845 16.8228 9.33333 16.9076 9.33333 16.996V24.3293C9.33333 24.9482 9.0875 25.5417 8.64992 25.9792C8.21233 26.4168 7.61884 26.6627 7 26.6627H2.33333C2.02692 26.6627 1.7235 26.6023 1.44041 26.4851C1.15731 26.3678 0.900088 26.1959 0.683418 25.9792C0.466748 25.7626 0.294876 25.5054 0.177615 25.2223C0.0603536 24.9392 0 24.6358 0 24.3293V11.2587C0 10.3747 0.390667 9.536 1.06667 8.96533L10.0667 1.376ZM12.644 2.90533C12.4637 2.75358 12.2356 2.67036 12 2.67036C11.7644 2.67036 11.5363 2.75358 11.356 2.90533L2.356 10.4933C2.24463 10.5871 2.15506 10.704 2.09357 10.836C2.03208 10.968 2.00015 11.1117 2 11.2573V24.328C2 24.512 2.14933 24.6613 2.33333 24.6613H7C7.08841 24.6613 7.17319 24.6262 7.2357 24.5637C7.29821 24.5012 7.33333 24.4164 7.33333 24.328V16.9947C7.33333 15.7053 8.37867 14.6613 9.66667 14.6613H14.3333C15.6213 14.6613 16.6667 15.7053 16.6667 16.9947V24.328C16.6667 24.512 16.816 24.6613 17 24.6613H21.6667C21.7551 24.6613 21.8399 24.6262 21.9024 24.5637C21.9649 24.5012 22 24.4164 22 24.328V11.2587C21.9999 11.1131 21.9679 10.9693 21.9064 10.8373C21.8449 10.7054 21.7554 10.5884 21.644 10.4947L12.644 2.90533Z" fill="#1A3B60"/>
</svg>
