<svg width="24" height="26" viewBox="0 0 24 26" fill="none" xmlns="http://www.w3.org/2000/svg">
<path d="M10.0667 0.706047C10.6077 0.250076 11.2925 0 12 0C12.7075 0 13.3923 0.250076 13.9333 0.706047L22.9333 8.29538C23.6093 8.86605 24 9.70471 24 10.5887V23.6594C24 24.2782 23.7542 24.8717 23.3166 25.3093C22.879 25.7469 22.2855 25.9927 21.6667 25.9927H17C16.3812 25.9927 15.7877 25.7469 15.3501 25.3093C14.9125 24.8717 14.6667 24.2782 14.6667 23.6594V16.326C14.6667 16.2376 14.6315 16.1529 14.569 16.0903C14.5065 16.0278 14.4217 15.9927 14.3333 15.9927H9.66667C9.57826 15.9927 9.49348 16.0278 9.43096 16.0903C9.36845 16.1529 9.33333 16.2376 9.33333 16.326V23.6594C9.33333 24.2782 9.0875 24.8717 8.64992 25.3093C8.21233 25.7469 7.61884 25.9927 7 25.9927H2.33333C2.02692 25.9927 1.7235 25.9324 1.44041 25.8151C1.15731 25.6978 0.900088 25.526 0.683418 25.3093C0.466748 25.0926 0.294876 24.8354 0.177615 24.5523C0.0603536 24.2692 0 23.9658 0 23.6594V10.5887C0 9.70471 0.390667 8.86605 1.06667 8.29538L10.0667 0.706047ZM12.644 2.23538C12.4637 2.08362 12.2356 2.00041 12 2.00041C11.7644 2.00041 11.5363 2.08362 11.356 2.23538L2.356 9.82338C2.24463 9.91714 2.15506 10.0341 2.09357 10.166C2.03208 10.298 2.00015 10.4418 2 10.5874V23.658C2 23.842 2.14933 23.9914 2.33333 23.9914H7C7.08841 23.9914 7.17319 23.9563 7.2357 23.8938C7.29821 23.8312 7.33333 23.7465 7.33333 23.658V16.3247C7.33333 15.0354 8.37867 13.9914 9.66667 13.9914H14.3333C15.6213 13.9914 16.6667 15.0354 16.6667 16.3247V23.658C16.6667 23.842 16.816 23.9914 17 23.9914H21.6667C21.7551 23.9914 21.8399 23.9563 21.9024 23.8938C21.9649 23.8312 22 23.7465 22 23.658V10.5887C21.9999 10.4431 21.9679 10.2993 21.9064 10.1674C21.8449 10.0354 21.7554 9.91847 21.644 9.82471L12.644 2.23538Z" fill="#83A0C1"/>
</svg>
