<svg width="58" height="18" viewBox="0 0 58 18" fill="none" xmlns="http://www.w3.org/2000/svg">
<path d="M8.57812 4.34801H10.483C10.4254 2.25142 8.57173 0.730113 5.91264 0.730113C3.28551 0.730113 1.27202 2.23224 1.27202 4.48864C1.27202 6.31037 2.57599 7.37784 4.67898 7.94673L6.22585 8.36861C7.62571 8.73935 8.70597 9.19957 8.70597 10.3629C8.70597 11.6413 7.48509 12.4851 5.80398 12.4851C4.28267 12.4851 3.01705 11.8075 2.90199 10.3821H0.920455C1.0483 12.7536 2.88281 14.2173 5.81676 14.2173C8.89134 14.2173 10.6619 12.6001 10.6619 10.3821C10.6619 8.02344 8.55895 7.10938 6.89702 6.70028L5.61861 6.3679C4.59588 6.10582 3.23438 5.62642 3.24077 4.37358C3.24077 3.26136 4.2571 2.43679 5.8679 2.43679C7.37003 2.43679 8.4375 3.13991 8.57812 4.34801ZM12.8688 14H14.78V4.18182H12.8688V14ZM13.834 2.6669C14.4924 2.6669 15.0421 2.15554 15.0421 1.52912C15.0421 0.902698 14.4924 0.384943 13.834 0.384943C13.1692 0.384943 12.6259 0.902698 12.6259 1.52912C12.6259 2.15554 13.1692 2.6669 13.834 2.6669ZM21.4677 17.8864C23.967 17.8864 25.8974 16.7422 25.8974 14.2173V4.18182H24.0245V5.77344H23.8839C23.5451 5.16619 22.8675 4.05398 21.0394 4.05398C18.668 4.05398 16.9229 5.92685 16.9229 9.05256C16.9229 12.1847 18.7063 13.853 21.0266 13.853C22.8292 13.853 23.5259 12.8366 23.8711 12.2102H23.9925V14.1406C23.9925 15.6811 22.9379 16.3459 21.4869 16.3459C19.8952 16.3459 19.2752 15.5469 18.9364 14.9844L17.2937 15.6619C17.8114 16.8636 19.1218 17.8864 21.4677 17.8864ZM21.4485 12.2678C19.7418 12.2678 18.8533 10.9574 18.8533 9.02699C18.8533 7.14134 19.7227 5.67756 21.4485 5.67756C23.1168 5.67756 24.0117 7.03906 24.0117 9.02699C24.0117 11.0533 23.0977 12.2678 21.4485 12.2678ZM30.3718 8.17045C30.3718 6.6044 31.3306 5.70952 32.6602 5.70952C33.9577 5.70952 34.744 6.55966 34.744 7.98509V14H36.6552V7.75497C36.6552 5.32599 35.3192 4.05398 33.3121 4.05398C31.8356 4.05398 30.8704 4.73793 30.4165 5.77983H30.2951V4.18182H28.4606V14H30.3718V8.17045ZM46.1106 0.909091H44.1355V14H46.1106V0.909091ZM50.7449 8.17045C50.7449 6.6044 51.7037 5.70952 53.0332 5.70952C54.3308 5.70952 55.117 6.55966 55.117 7.98509V14H57.0282V7.75497C57.0282 5.32599 55.6923 4.05398 53.6852 4.05398C52.2086 4.05398 51.2434 4.73793 50.7896 5.77983H50.6681V4.18182H48.8336V14H50.7449V8.17045Z" fill="#1A3B60"/>
</svg>
